<?xml version="1.0" encoding="UTF-8"?>
<svg width="33px" height="30px" viewBox="0 0 33 30" version="1.1" xmlns="http://www.w3.org/2000/svg" xmlns:xlink="http://www.w3.org/1999/xlink">
    <!-- Generator: Sketch 51.2 (57519) - http://www.bohemiancoding.com/sketch -->
    <title>Group 9@2x</title>
    <desc>Created with Sketch.</desc>
    <defs></defs>
    <g id="Landing-Page" stroke="none" stroke-width="1" fill="none" fill-rule="evenodd">
        <g id="Landing-Page-Final" transform="translate(-165.000000, -1487.000000)" fill="#000000" fill-rule="nonzero">
            <g id="Group-9" transform="translate(165.000000, 1487.000000)">
                <g id="if_diamond_430094">
                    <path d="M32.0214356,10.6127473 L0.65509901,10.6127473 C0.40090099,10.6127473 0.16990099,10.4640659 0.0627326733,10.2313187 C-0.0444356436,9.99857143 -0.00816831683,9.72428571 0.155524752,9.52846154 L7.67821782,0.525824176 C7.80237624,0.377142857 7.9850198,0.291428571 8.17779208,0.291428571 L24.5003762,0.291428571 C24.6931485,0.291428571 24.8757921,0.377142857 24.9999505,0.525824176 L32.5210099,9.52846154 C32.684703,9.72461538 32.7209703,9.9989011 32.613802,10.2313187 C32.5066337,10.4637363 32.2756337,10.6127473 32.0214356,10.6127473 Z M2.0610297,9.29406593 L30.6161584,9.29406593 L24.1968416,1.61010989 L8.48165347,1.61010989 L2.0610297,9.29406593 Z" id="Shape"></path>
                    <polygon id="Shape" points="16.3382673 29.7689011 0.15519802 10.378022 1.155 9.52879121 16.3382673 27.7213187 31.5215347 9.52879121 32.5213366 10.378022"></polygon>
                    <path d="M16.3382673,29.4042857 C16.0608713,29.4042857 15.8141881,29.2279121 15.7220495,28.9641758 L9.1560297,10.1726374 C9.08382178,9.96659341 9.11780198,9.73846154 9.24588119,9.56241758 L15.811901,0.55978022 C16.057604,0.222197802 16.6179505,0.222197802 16.8643069,0.55978022 L23.4316337,9.56241758 C23.5600396,9.73813187 23.5936931,9.96659341 23.5214851,10.1726374 L16.9541584,28.9641758 C16.8623465,29.2279121 16.6156634,29.4042857 16.3382673,29.4042857 Z M10.5034752,10.0631868 L16.3379406,26.7623077 L22.1737129,10.0631868 L16.3382673,2.06307692 L10.5034752,10.0631868 Z" id="Shape"></path>
                </g>
            </g>
        </g>
    </g>
</svg>